<?xml version="1.0" encoding="utf-8"?>
<svg viewBox="0 0 500 500" xmlns="http://www.w3.org/2000/svg" xmlns:bx="https://boxy-svg.com">
  <defs>
    <linearGradient x1="50%" y1="-2.80786187%" x2="50%" y2="428.758892%" id="gradient-4">
      <stop stop-color="#002E3B" offset="0"/>
      <stop stop-color="#002639" offset="1"/>
    </linearGradient>
    <radialGradient cx="16.423338%" cy="-42.999755%" r="357.003966%" id="gradient-6">
      <stop stop-color="#00BC85" offset="0"/>
      <stop stop-color="#149D91" offset="1"/>
    </radialGradient>
    <radialGradient cx="11.4670327%" cy="-40.4580495%" r="343.189366%" id="gradient-7">
      <stop stop-color="#004473" offset="0"/>
      <stop stop-color="#00345F" offset="1"/>
    </radialGradient>
    <linearGradient x1="50%" y1="-2.80786187%" x2="50%" y2="428.758892%" id="gradient-2">
      <stop stop-color="#002E3B" offset="0"/>
      <stop stop-color="#002639" offset="1"/>
    </linearGradient>
    <radialGradient cx="16.423338%" cy="-42.999755%" r="357.003966%" id="gradient-9">
      <stop stop-color="#00BC85" offset="0"/>
      <stop stop-color="#149D91" offset="1"/>
    </radialGradient>
    <radialGradient cx="11.4670327%" cy="-40.4580495%" r="343.189366%" id="gradient-10">
      <stop stop-color="#004473" offset="0"/>
      <stop stop-color="#00345F" offset="1"/>
    </radialGradient>
  </defs>
  <g style="" transform="matrix(1.42701, 0, 0, 1.198274, 622.508545, -8.763172)">
    <rect style="fill: rgb(216, 216, 216);" x="-415.897" y="43.47" width="298.472" height="354.714" rx="75.895" ry="75.895" bx:origin="0.5 0.5"/>
    <g style="" transform="matrix(0.997072, 0.007067, -0.005289, 1.053702, -319.188599, -72.150314)">
      <g transform="matrix(0.644752, 0, 0, 0.528941, -26.185783, 137.424377)" style="">
        <path d="M57.6019991,98.1748765 L57.6019991,98.1541795 L127.531267,64.0476413 L197.46571,98.1541795 L255.003891,62.1986373 L127.484698,0 L0,62.1796642 L0,62.2348584 L57.5537042,98.1990237 L57.6019991,98.1748765 L57.6019991,98.1748765 Z" fill="url(#gradient-4)"/>
        <path d="M196.677541,99.4103235 C196.67754,132.999495 196.677539,200.177839 196.677539,200.177839 L126.336262,234.601641 L191.022434,266.940614 L254.000917,236.143726 L254.00091,62.1907831 L196.677541,98.1665853 L196.677541,99.4103235 Z" fill="url(#gradient-6)"/>
        <path d="M255.003891,298.216498 L57.5889764,199.96591 L57.5889774,98.1815418 L1.42108547e-14,62.2302408 L1.42108547e-14,63.1375243 L1.42108547e-14,235.931797 L255.003891,362.253488 L255.003891,298.216498 Z" fill="url(#gradient-7)"/>
      </g>
      <g transform="matrix(-0.644752, 0, 0, -0.528941, 138.290558, 421.378418)" style="">
        <path d="M57.6019991,98.1748765 L57.6019991,98.1541795 L127.531267,64.0476413 L197.46571,98.1541795 L255.003891,62.1986373 L127.484698,0 L0,62.1796642 L0,62.2348584 L57.5537042,98.1990237 L57.6019991,98.1748765 L57.6019991,98.1748765 Z" fill="url(#gradient-2)"/>
        <path d="M196.677541,99.4103235 C196.67754,132.999495 196.677539,200.177839 196.677539,200.177839 L126.336262,234.601641 L191.022434,266.940614 L254.000917,236.143726 L254.00091,62.1907831 L196.677541,98.1665853 L196.677541,99.4103235 Z" fill="url(#gradient-9)"/>
        <path d="M255.003891,298.216498 L57.5889764,199.96591 L57.5889774,98.1815418 L1.42108547e-14,62.2302408 L1.42108547e-14,63.1375243 L1.42108547e-14,235.931797 L255.003891,362.253488 L255.003891,298.216498 Z" fill="url(#gradient-10)"/>
      </g>
    </g>
  </g>
</svg>